<svg xmlns="http://www.w3.org/2000/svg" viewBox="0 0 180 180">
  <style>
    rect { fill: #000 }
    @media (prefers-color-scheme: dark) { rect { fill: #fff } }
  </style>
  <rect x="27" y="135" width="18" height="18"/>
  <rect x="27" y="117" width="18" height="18"/>
  <rect x="27" y="99" width="18" height="18"/>
  <rect x="27" y="81" width="18" height="18"/>
  <rect x="27" y="63" width="18" height="18"/>
  <rect x="27" y="45" width="18" height="18"/>
  <rect x="45" y="27" width="18" height="18"/>
  <rect x="63" y="27" width="18" height="18"/>
  <rect x="81" y="27" width="18" height="18"/>
  <rect x="99" y="45" width="18" height="18"/>
  <rect x="99" y="63" width="18" height="18"/>
  <rect x="99" y="135" width="18" height="18"/>
  <rect x="81" y="117" width="18" height="18"/>
  <rect x="117" y="117" width="18" height="18"/>
  <rect x="63" y="99" width="18" height="18"/>
  <rect x="135" y="99" width="18" height="18"/>
</svg>
