<svg xmlns="http://www.w3.org/2000/svg" viewBox="0 0 20 20">
  <style>
    rect { fill: #000 }
    @media (prefers-color-scheme: dark) { rect { fill: #fff } }
  </style>
  <rect x="3" y="15" width="2" height="2"/>
  <rect x="3" y="13" width="2" height="2"/>
  <rect x="3" y="11" width="2" height="2"/>
  <rect x="3" y="9" width="2" height="2"/>
  <rect x="3" y="7" width="2" height="2"/>
  <rect x="3" y="5" width="2" height="2"/>
  <rect x="5" y="3" width="2" height="2"/>
  <rect x="7" y="3" width="2" height="2"/>
  <rect x="9" y="3" width="2" height="2"/>
  <rect x="11" y="5" width="2" height="2"/>
  <rect x="11" y="7" width="2" height="2"/>
  <rect x="11" y="15" width="2" height="2"/>
  <rect x="9" y="13" width="2" height="2"/>
  <rect x="13" y="13" width="2" height="2"/>
  <rect x="7" y="11" width="2" height="2"/>
  <rect x="15" y="11" width="2" height="2"/>
</svg>
